# xmcd
#
# Track frame offsets:
#	150
#	19210
#	34765
#	55147
#	68830
#	93549
#	109407
#	124232
#	139296
#	157248
#	177808
#	188960
#
# Disc length: 2762 seconds
#
# Revision: 1
# Processed by: cddbd v1.5.2PL0 Copyright (c) Steve Scherf et al.
# Submitted via: audiograbber 1.83.01
#
DISCID=b10ac80c
DTITLE=Mike Stack - I Need Wheels
DYEAR=2002
DGENRE=Country
TTITLE0=You'll Know When
TTITLE1=Jonny Love
TTITLE2=Je T'aime
TTITLE3=Comin Home
TTITLE4=I Need Wheels
TTITLE5=Nice Fella
TTITLE6=The Dance Of Love
TTITLE7=Cryin On My Knees
TTITLE8=Doolin To Tralee
TTITLE9=White Cross
TTITLE10=Highway
TTITLE11=His Mama's Face
EXTD=
EXTT0=
EXTT1=
EXTT2=
EXTT3=
EXTT4=
EXTT5=
EXTT6=
EXTT7=
EXTT8=
EXTT9=
EXTT10=
EXTT11=
PLAYORDER=
